<svg width="2567" height="834" xmlns="http://www.w3.org/2000/svg" xmlns:xlink="http://www.w3.org/1999/xlink" xml:space="preserve" overflow="hidden"><g transform="translate(-916 -820)"><g><path d="M1309 1125.68 1324.37 1135.41C1399.88 1186.63 1398.53 1239.47 1395.14 1267.1 1459.8 1237.89 1481.79 1249 1540.25 1274.85 1497.47 1396.53 1419.64 1422.03 1341.07 1458.88L1309 1474.91 1276.93 1458.88C1198.36 1422.03 1120.53 1396.53 1077.75 1274.85 1136.21 1249 1158.2 1237.89 1222.86 1267.1 1219.47 1239.47 1218.12 1186.63 1293.63 1135.41ZM1193.12 895.187 1193.12 976.199 1187.63 978.204C1075.73 1025.5 997.203 1136.23 997.203 1265.29 997.203 1437.36 1136.8 1576.85 1309 1576.85 1481.2 1576.85 1620.8 1437.36 1620.8 1265.29 1620.8 1136.23 1542.27 1025.5 1430.37 978.204L1424.88 976.199 1424.88 895.187 1460.03 908.041C1599.29 966.899 1697 1104.69 1697 1265.29 1697 1479.41 1523.29 1653 1309 1653 1094.71 1653 921 1479.41 921 1265.29 921 1104.69 1018.71 966.899 1157.97 908.041ZM1230.03 822 1309 822 1387.97 822 1387.01 854.57C1384.45 947.634 1384.67 1051.98 1429.02 1088.61 1370.05 1089.34 1344.54 1076.97 1309.48 1058.04L1309 1058.15 1308.52 1058.04C1273.46 1076.97 1247.95 1089.34 1188.98 1088.61 1233.33 1051.98 1233.55 947.634 1230.99 854.57Z" fill="#4B1E0C" fill-rule="evenodd" fill-opacity="1"/><path d="M3207.22 850C3225.83 850.521 3244.43 851.075 3263.04 851.597 3265.65 851.597 3269.3 852.129 3269.3 855.323 3269.3 857.984 3267.25 864.385 3265.13 870.226 3265.13 890.984 3265.13 911.742 3265.13 932.5 3336.42 932.5 3407.71 932.5 3479 932.5 3479 940.307 3479 948.113 3479 955.92 3407.71 955.92 3336.42 955.92 3265.13 955.92 3265.13 983.419 3265.13 1010.92 3265.13 1038.42 3321.12 1038.42 3377.11 1038.42 3433.1 1038.42 3433.1 1106.19 3433.1 1173.97 3433.1 1241.74 3433.1 1284.32 3415.36 1293.37 3376.24 1293.37 3354.67 1293.37 3333.11 1293.37 3311.55 1293.37 3307.83 1283.99 3304.31 1274.54 3300.6 1265.16 3318.34 1267.25 3336.07 1268.89 3353.81 1268.89 3371.02 1268.89 3377.8 1267.29 3377.8 1247.6 3377.8 1185.68 3377.8 1123.76 3377.8 1061.84 3340.24 1061.84 3302.68 1061.84 3265.13 1061.84 3265.13 1156.23 3265.13 1250.61 3265.13 1345 3246.52 1345 3227.91 1345 3209.31 1345 3209.31 1250.61 3209.31 1156.23 3209.31 1061.84 3171.75 1061.84 3134.19 1061.84 3096.63 1061.84 3096.63 1139.37 3096.63 1216.9 3096.63 1294.44 3078.38 1294.44 3060.12 1294.44 3041.86 1294.44 3041.86 1209.1 3041.86 1123.76 3041.86 1038.42 3097.68 1038.42 3153.49 1038.42 3209.31 1038.42 3209.31 1010.92 3209.31 983.419 3209.31 955.92 3138.54 955.92 3067.77 955.92 2997 955.92 2997 948.113 2997 940.307 2997 932.5 3067.77 932.5 3138.54 932.5 3209.31 932.5 3209.31 916.355 3209.31 900.21 3209.31 884.065 3209.31 872.355 3208.82 861.173 3207.22 850Z" fill="#0D0D0D" fill-rule="evenodd" fill-opacity="1"/><path d="M2826.53 850C2845.35 857.803 2864 866.021 2882.83 873.824 2885.44 874.864 2887 875.412 2887 877.53 2887 881.765 2880.76 884.967 2877.62 886.53 2854.91 914.891 2830.95 942.398 2803.59 967 2794.68 962.311 2785.9 957.395 2777 952.706 2799.72 922.223 2818.55 887.556 2826.53 850Z" fill="#0D0D0D" fill-rule="evenodd" fill-opacity="1"/><path d="M2655.38 850C2685.3 875.407 2711.28 905.417 2735 936.25 2716.86 947.332 2699.02 958.918 2680.88 970 2666.58 934.21 2653.07 898.563 2633 866.071 2640.51 860.788 2647.87 855.283 2655.38 850Z" fill="#0D0D0D" fill-rule="evenodd" fill-opacity="1"/><path d="M2449 884C2495.33 884 2541.67 884 2588 884 2588 1000.1 2588 1116.21 2588 1232.31 2558.09 1232.31 2528.18 1232.31 2498.27 1232.31 2498.27 1244.54 2498.27 1256.77 2498.27 1269 2481.85 1269 2465.42 1269 2449 1269 2449 1140.67 2449 1012.33 2449 884ZM2498.27 907.93C2498.27 1008.08 2498.27 1108.23 2498.27 1208.38 2513.31 1208.38 2528.35 1208.38 2543.4 1208.38 2543.4 1108.23 2543.4 1008.08 2543.4 907.93 2528.35 907.93 2513.31 907.93 2498.27 907.93Z" fill="#0D0D0D" fill-rule="evenodd" fill-opacity="1"/><path d="M2610.68 972C2703.7 972 2796.72 972 2889.75 972 2889.75 979.804 2889.75 987.608 2889.75 995.413 2852.02 995.413 2814.29 995.413 2776.56 995.413 2776.56 1012.08 2776.56 1028.76 2776.56 1045.43 2776.56 1063.52 2775.03 1081.09 2772.9 1098.64 2819.5 1098.64 2866.1 1098.64 2912.7 1098.64 2912.7 1106.62 2912.7 1114.6 2912.7 1122.58 2868.36 1122.58 2824.02 1122.58 2779.69 1122.58 2789.26 1180.02 2805.86 1224.63 2846.45 1266.25 2868.07 1288.38 2893.27 1305.33 2920 1319.99 2914.71 1327.74 2909.64 1335.65 2904.35 1343.4 2837.35 1313.59 2776 1265.53 2748.91 1194.42 2712.3 1274.48 2643.12 1324.12 2561.13 1345 2556.01 1337.42 2551.11 1329.7 2546 1322.12 2597.75 1304.36 2638.92 1280.29 2672.23 1234.86 2696.55 1201.57 2710.19 1163.54 2716.05 1122.58 2676.23 1122.58 2636.41 1122.58 2596.6 1122.58 2596.6 1114.6 2596.6 1106.62 2596.6 1098.64 2637.28 1098.64 2677.97 1098.64 2718.66 1098.64 2720.25 1084.28 2721.26 1069.37 2721.26 1055.01 2721.26 1035.14 2721.26 1015.28 2721.26 995.413 2684.4 995.413 2647.54 995.413 2610.68 995.413 2610.68 987.608 2610.68 979.804 2610.68 972Z" fill="#0D0D0D" fill-rule="evenodd" fill-opacity="1"/><path d="M2139.07 853C2160.3 855.608 2181.5 858.376 2202.72 860.983 2205.85 861.505 2208.45 863.112 2208.45 866.305 2208.45 870.031 2206.42 872.746 2201.15 878.014 2199.03 884.387 2196.5 890.8 2194.37 897.174 2239.58 897.174 2284.79 897.174 2330 897.174 2328.4 928.04 2321.85 991.991 2310.7 1017.45 2300.08 1041.32 2283.05 1043 2259.06 1043 2241.15 1043 2223.23 1043 2205.32 1043 2201.08 1033.27 2197.05 1023.45 2192.81 1013.73 2205.85 1015.81 2218.89 1018.52 2231.93 1018.52 2249.14 1018.52 2260.01 1013.7 2264.79 996.165 2271.71 971.72 2274.66 946.134 2276.79 921.123 2245.84 921.123 2214.89 921.123 2183.94 921.123 2161.13 967.24 2128.94 1006.68 2088.47 1037.15 2080.59 1031.37 2072.88 1025.36 2065 1019.58 2110.76 982.789 2139.6 928.042 2139.6 867.37 2139.6 862.58 2139.61 857.789 2139.07 853Z" fill="#0D0D0D" fill-rule="evenodd" fill-opacity="1"/><path d="M1949.45 858C1973.95 858 1998.46 858 2022.96 858 2035.71 895.326 2057.61 929.356 2085 956.859 2077.98 963.733 2071.17 970.826 2064.15 977.7 2035.27 956.611 2011.78 927.789 1990.11 898.612 1976.36 920.929 1961.12 942.076 1943.71 961.669 1977.08 961.669 2010.45 961.669 2043.81 961.669 2043.81 969.506 2043.81 977.344 2043.81 985.181 2008.71 985.181 1973.61 985.181 1938.5 985.181 1938.5 979.125 1938.5 973.069 1938.5 967.013 1917.41 989.773 1895.4 1011.08 1870.2 1029 1864.4 1022.47 1858.8 1015.76 1853 1009.23 1858.28 1003.96 1863.39 998.529 1868.67 993.261 1905.13 955.166 1936.43 907.965 1949.45 858Z" fill="#0D0D0D" fill-rule="evenodd" fill-opacity="1"/><path d="M1893 1022C1948.67 1022 2004.33 1022 2060 1022 2060 1073.73 2060 1125.46 2060 1177.19 2021.38 1177.19 1982.76 1177.19 1944.14 1177.19 1944.14 1191.89 1944.14 1206.59 1944.14 1221.3 1982.76 1221.3 2021.38 1221.3 2060 1221.3 2060 1229.27 2060 1237.24 2060 1245.21 2021.38 1245.21 1982.76 1245.21 1944.14 1245.21 1944.14 1259.38 1944.14 1273.56 1944.14 1287.73 1982.76 1287.73 2021.38 1287.73 2060 1287.73 2060 1295.52 2060 1303.32 2060 1311.11 2021.38 1311.11 1982.76 1311.11 1944.14 1311.11 1944.14 1321.74 1944.14 1332.37 1944.14 1343 1927.1 1343 1910.05 1343 1893 1343 1893 1236 1893 1129 1893 1022ZM1944.14 1045.92C1944.14 1059.56 1944.14 1073.2 1944.14 1086.84 1967.11 1086.84 1990.07 1086.84 2013.03 1086.84 2013.03 1073.2 2013.03 1059.56 2013.03 1045.92 1990.07 1045.92 1967.11 1045.92 1944.14 1045.92ZM1944.14 1110.22C1944.14 1124.75 1944.14 1139.27 1944.14 1153.8 1967.11 1153.8 1990.07 1153.8 2013.03 1153.8 2013.03 1139.27 2013.03 1124.75 2013.03 1110.22 1990.07 1110.22 1967.11 1110.22 1944.14 1110.22Z" fill="#0D0D0D" fill-rule="evenodd" fill-opacity="1"/><path d="M2160.7 1045C2172.79 1055.5 2184.57 1066.37 2196.66 1076.87 2199.81 1079.5 2200.31 1081.65 2200.31 1083.25 2200.31 1087.5 2195.62 1088.56 2187.8 1088.56 2170.06 1093.25 2152.38 1098.19 2134.12 1101.84 2134.12 1130.35 2134.12 1158.85 2134.12 1187.36 2152.88 1187.36 2171.64 1187.36 2190.41 1187.36 2190.41 1195.15 2190.41 1202.94 2190.41 1210.73 2171.64 1210.73 2152.88 1210.73 2134.12 1210.73 2134.12 1239.42 2134.12 1268.1 2134.12 1296.79 2181.37 1296.79 2228.63 1296.79 2275.88 1296.79 2275.88 1268.1 2275.88 1239.42 2275.88 1210.73 2257.47 1210.73 2239.05 1210.73 2220.64 1210.73 2220.64 1202.94 2220.64 1195.15 2220.64 1187.36 2239.05 1187.36 2257.47 1187.36 2275.88 1187.36 2275.88 1157.79 2275.88 1128.22 2275.88 1098.65 2255.21 1098.65 2234.53 1098.65 2213.86 1098.65 2213.86 1090.68 2213.86 1082.71 2213.86 1074.75 2251.91 1074.75 2289.95 1074.75 2328 1074.75 2328 1164.16 2328 1253.58 2328 1343 2310.63 1343 2293.25 1343 2275.88 1343 2275.88 1335.56 2275.88 1328.13 2275.88 1320.69 2228.63 1320.69 2181.37 1320.69 2134.12 1320.69 2134.12 1328.13 2134.12 1335.56 2134.12 1343 2116.75 1343 2099.37 1343 2082 1343 2082 1254.29 2082 1165.58 2082 1076.87 2093.47 1078.09 2104.93 1079.38 2116.4 1080.59 2134.17 1073.81 2150.64 1061.91 2160.7 1045Z" fill="#0D0D0D" fill-rule="evenodd" fill-opacity="1"/><path d="M2971.3 1428C2989.35 1428 3007.61 1432.63 3020.84 1445.66 3030.49 1455.12 3033.43 1464.59 3035.95 1477.62 3027.14 1477.62 3018.32 1477.62 3009.5 1477.62 3005.31 1453.44 2996.07 1439.14 2969.62 1439.14 2954.72 1439.14 2943.39 1444.82 2936.04 1458.07 2926.81 1474.47 2925.55 1495.5 2925.55 1514 2925.55 1532.92 2926.81 1553.11 2936.04 1569.93 2940.24 1577.5 2946.96 1583.81 2955.14 1586.75 2960.18 1588.65 2965.64 1588.86 2970.88 1588.86 2983.69 1588.86 2994.39 1584.65 3001.74 1573.93 3007.4 1565.73 3009.29 1556.68 3010.13 1547.01 3019.09 1547.01 3028.04 1547.01 3037 1547.01 3035.32 1557.32 3032.38 1566.99 3026.3 1575.61 3013.28 1593.69 2993.13 1600 2971.72 1600 2918.83 1600 2897 1563.41 2897 1514.63 2897 1466.06 2918.41 1428 2971.3 1428Z" fill="#0D0D0D" fill-rule="evenodd" fill-opacity="1"/><path d="M2076.52 1431C2088.51 1431 2100.49 1431 2112.48 1431 2130.99 1486.33 2149.49 1541.67 2168 1597 2159.1 1597 2150.19 1597 2141.29 1597 2136.81 1582.53 2132.32 1568.07 2127.83 1553.6 2105.61 1553.6 2083.39 1553.6 2061.17 1553.6 2056.68 1568.07 2052.19 1582.53 2047.71 1597 2038.81 1597 2029.9 1597 2021 1597 2039.51 1541.67 2058.01 1486.33 2076.52 1431ZM2094.61 1446.8C2084.65 1478.68 2074.7 1510.56 2064.74 1542.44 2084.58 1542.44 2104.42 1542.44 2124.26 1542.44 2114.37 1510.56 2104.49 1478.68 2094.61 1446.8Z" fill="#0D0D0D" fill-rule="evenodd" fill-opacity="1"/><path d="M2603 1431C2610.63 1431 2618.26 1431 2625.89 1431 2625.89 1461.62 2625.89 1492.23 2625.89 1522.85 2643.67 1509.22 2661.44 1495.6 2679.22 1481.98 2686.08 1481.98 2692.94 1481.98 2699.8 1481.98 2683.77 1494.55 2667.74 1507.12 2651.72 1519.69 2669.14 1545.46 2686.57 1571.23 2704 1597 2694.41 1597 2684.82 1597 2675.23 1597 2661.16 1575.23 2647.1 1553.46 2633.03 1531.7 2630.65 1533.94 2628.27 1536.19 2625.89 1538.44 2625.89 1557.96 2625.89 1577.48 2625.89 1597 2618.26 1597 2610.63 1597 2603 1597 2603 1541.67 2603 1486.33 2603 1431Z" fill="#0D0D0D" fill-rule="evenodd" fill-opacity="1"/><path d="M3183.45 1444C3183.45 1456.52 3183.45 1469.05 3183.45 1481.58 3191.88 1481.58 3200.31 1481.58 3208.75 1481.58 3208.75 1484.95 3208.75 1488.33 3208.75 1491.71 3200.31 1491.71 3191.88 1491.71 3183.45 1491.71 3183.45 1518.59 3183.45 1545.47 3183.45 1572.35 3183.45 1579.52 3185.33 1588.18 3194.11 1588.18 3198.71 1588.18 3203.1 1585.86 3206.65 1583.11 3207.77 1586 3208.88 1588.88 3210 1591.77 3202.89 1597.26 3193.69 1600 3184.91 1600 3168.18 1600 3160.65 1588.6 3160.65 1572.77 3160.65 1545.75 3160.65 1518.73 3160.65 1491.71 3154.1 1491.71 3147.55 1491.71 3141 1491.71 3141 1488.33 3141 1484.95 3141 1481.58 3147.55 1481.58 3154.1 1481.58 3160.65 1481.58 3160.65 1471.72 3160.65 1461.87 3160.65 1452.02 3168.25 1449.35 3175.85 1446.67 3183.45 1444Z" fill="#0D0D0D" fill-rule="evenodd" fill-opacity="1"/><path d="M2261.2 1479C2285.69 1479 2297 1497.09 2297 1519.81 2297 1545.54 2297 1571.27 2297 1597 2289.39 1597 2281.79 1597 2274.18 1597 2274.18 1570.22 2274.18 1543.43 2274.18 1516.65 2274.18 1504.24 2268.74 1490.99 2254.5 1490.99 2246.34 1490.99 2239.01 1496.46 2233.98 1502.35 2230.22 1506.76 2227.7 1511.6 2225.82 1517.07 2225.82 1543.71 2225.82 1570.36 2225.82 1597 2218.21 1597 2210.61 1597 2203 1597 2203 1558.72 2203 1520.44 2203 1482.16 2210.4 1482.16 2217.79 1482.16 2225.19 1482.16 2225.33 1487.97 2225.47 1493.79 2225.61 1499.61 2234.61 1486.99 2245.08 1479 2261.2 1479Z" fill="#0D0D0D" fill-rule="evenodd" fill-opacity="1"/><path d="M2517.42 1479C2544.82 1479 2564 1492.23 2564 1521.01 2564 1539.01 2564 1557.01 2564 1575 2564 1582.35 2565.05 1590.13 2568 1596.85 2562.31 1596.85 2556.62 1596.85 2550.93 1596.85 2547.56 1593.7 2544.82 1589.71 2543.34 1585.3 2531.54 1595.8 2518.05 1600 2502.46 1600 2481.81 1600 2466 1590.13 2466 1568.07 2466 1551.89 2473.8 1543.07 2487.71 1536.35 2504.36 1528.37 2523.11 1526.9 2541.24 1526.27 2541.24 1523.32 2541.24 1520.38 2541.24 1517.44 2541.24 1502.11 2535.55 1489.92 2518.26 1489.92 2510.89 1489.92 2503.09 1492.86 2498.88 1499.17 2496.14 1503.58 2495.29 1508.41 2495.08 1513.45 2486.93 1513.45 2478.79 1513.45 2470.64 1513.45 2472.11 1488.87 2495.5 1479 2517.42 1479ZM2541.24 1536.35C2520.37 1536.56 2488.97 1539.71 2488.97 1567.23 2488.97 1580.46 2497.82 1588.03 2510.89 1588.03 2522.06 1588.03 2533.86 1583.4 2541.24 1574.79 2541.24 1561.98 2541.24 1549.16 2541.24 1536.35Z" fill="#0D0D0D" fill-rule="evenodd" fill-opacity="1"/><path d="M2338.28 1482C2368.09 1482 2397.91 1482 2427.72 1482 2427.72 1484.95 2427.72 1487.9 2427.72 1490.85 2405.86 1522.79 2384.01 1554.74 2362.16 1586.68 2386.11 1586.68 2410.05 1586.68 2434 1586.68 2434 1590.12 2434 1593.56 2434 1597 2400 1597 2366 1597 2332 1597 2332 1594.54 2332 1592.09 2332 1589.63 2354.41 1557.12 2376.82 1524.62 2399.23 1492.11 2378.92 1492.11 2358.6 1492.11 2338.28 1492.11 2338.28 1488.74 2338.28 1485.37 2338.28 1482Z" fill="#0D0D0D" fill-rule="evenodd" fill-opacity="1"/><path d="M2741 1431C2748.67 1431 2756.33 1431 2764 1431 2764 1438.67 2764 1446.33 2764 1454 2756.33 1454 2748.67 1454 2741 1454 2741 1446.33 2741 1438.67 2741 1431Z" fill="#0D0D0D" fill-rule="evenodd" fill-opacity="1"/><path d="M2741 1482C2748.67 1482 2756.33 1482 2764 1482 2764 1520.33 2764 1558.67 2764 1597 2756.33 1597 2748.67 1597 2741 1597 2741 1558.67 2741 1520.33 2741 1482Z" fill="#0D0D0D" fill-rule="evenodd" fill-opacity="1"/><path d="M3079 1431C3086.67 1431 3094.33 1431 3102 1431 3102 1438.67 3102 1446.33 3102 1454 3094.33 1454 3086.67 1454 3079 1454 3079 1446.33 3079 1438.67 3079 1431Z" fill="#0D0D0D" fill-rule="evenodd" fill-opacity="1"/><path d="M3079 1482C3086.67 1482 3094.33 1482 3102 1482 3102 1520.33 3102 1558.67 3102 1597 3094.33 1597 3086.67 1597 3079 1597 3079 1558.67 3079 1520.33 3079 1482Z" fill="#0D0D0D" fill-rule="evenodd" fill-opacity="1"/><path d="M3236 1482C3244.72 1482 3253.44 1482 3262.16 1482 3274.23 1507.87 3286.3 1533.73 3298.37 1559.6 3308.84 1533.73 3319.3 1507.87 3329.77 1482 3334.51 1482 3339.26 1482 3344 1482 3324.19 1529.67 3304.37 1577.33 3284.56 1625 3279.88 1625 3275.21 1625 3270.53 1625 3276.12 1612.1 3281.7 1599.2 3287.28 1586.31 3270.19 1551.54 3253.09 1516.77 3236 1482Z" fill="#0D0D0D" fill-rule="evenodd" fill-opacity="1"/></g></g></svg>